# xmcd
#
# Track frame offsets: 
#        150
#        21644
#        45673
#        63359
#        77506
#        94245
#        118953
#        135103
#        154541
#        173437
#        187026
#
# Disc length: 2761 seconds
#
# Revision: 0
# Processed by: cddbd v1.5.2PL0 Copyright (c) Steve Scherf et al.
# Submitted via: ExactAudioCopy v0.99pb4
#
DISCID=870ac70b
DTITLE=Creech Holler - The Shovel and the Gun
DYEAR=2008
DGENRE=Folk/Rock
TTITLE0=Raymond Lee
TTITLE1=Maggie Rose
TTITLE2=Willie Williams
TTITLE3=Darlin' Corey
TTITLE4=When the Temptor Calls
TTITLE5=Devil's Eyes
TTITLE6=John the Revelator
TTITLE7=The Cuckoo
TTITLE8=Serpent King
TTITLE9=The Color of Bone
TTITLE10=Poor Pilgrim of Sorrow
EXTD=
EXTT0=
EXTT1=
EXTT2=
EXTT3=
EXTT4=
EXTT5=
EXTT6=
EXTT7=
EXTT8=
EXTT9=
EXTT10=
PLAYORDER=
